<svg width="98" height="11" viewBox="0 0 98 11" fill="none" xmlns="http://www.w3.org/2000/svg">
<path d="M0.665501 11V0.695999H2.4095V11H0.665501ZM11.3111 11V0.695999H12.8471L18.2231 8.28V0.695999H19.9511V11H18.4151L13.0551 3.432V11H11.3111ZM31.535 11V2.056H28.239V0.695999H36.559V2.056H33.279V11H31.535ZM44.8368 11V0.695999H52.0208V2.056H46.5808V5.176H51.4288V6.52H46.5808V9.656H52.0208V11H44.8368ZM60.5136 11V0.695999H65.2496C66.4016 0.695999 67.239 0.994666 67.7616 1.592C68.295 2.17867 68.5616 2.97867 68.5616 3.992C68.5616 4.71733 68.3803 5.336 68.0176 5.848C67.655 6.36 67.1323 6.71733 66.4496 6.92C66.6416 7.05867 66.791 7.208 66.8976 7.368C67.0043 7.528 67.111 7.74133 67.2176 8.008L68.5136 11H66.7216L65.4576 8.12C65.3403 7.84267 65.1963 7.64533 65.0256 7.528C64.8656 7.41067 64.5883 7.352 64.1936 7.352H62.2576V11H60.5136ZM62.2576 5.944H64.7856C65.415 5.944 65.911 5.78933 66.2736 5.48C66.6363 5.17067 66.8176 4.67467 66.8176 3.992C66.8176 2.70133 66.1936 2.056 64.9456 2.056H62.2576V5.944ZM77.1593 11V0.695999H78.9033V11H77.1593ZM87.5009 11L91.4369 0.695999H93.3889L97.2929 11H95.5009L94.4769 8.344H90.3329L89.3089 11H87.5009ZM90.6049 7H94.1889L92.3969 2.28L90.6049 7Z" fill="white"/>
</svg>
